<svg id="SvgjsSvg1054" width="288" height="288" xmlns="http://www.w3.org/2000/svg" version="1.1" xmlns:xlink="http://www.w3.org/1999/xlink" xmlns:svgjs="http://svgjs.com/svgjs"><defs id="SvgjsDefs1055"></defs><g id="SvgjsG1056"><svg xmlns="http://www.w3.org/2000/svg" viewBox="0 0 24 24" width="288" height="288"><path d="M17.5 9.5A.5.5 0 0017 9h-.347c-.086-.099-.155-.209-.249-.303L15 7.293V2.5C15 1.122 13.879 0 12.5 0h-10A2.503 2.503 0 000 2.5v10C0 13.878 1.121 15 2.5 15h5a.5.5 0 000-1h-5c-.827 0-1.5-.673-1.5-1.5V5h13v1.715a1.558 1.558 0 00-1.736 1.061 1.593 1.593 0 00-1.617.371 1.556 1.556 0 00-.429.808 1.561 1.561 0 00-1.774 1.654 1.563 1.563 0 00-.892 2.65l.448.448V15.5a2.49 2.49 0 001.002 1.989L9 17.5v.5a.5.5 0 001 0v-.051c.162.033.329.051.5.051h2.05a5.458 5.458 0 005.451-5.449c0-.948-.263-1.848-.715-2.652A.492.492 0 0017.5 9.5zM1 4V2.5C1 1.673 1.673 1 2.5 1h10c.827 0 1.5.673 1.5 1.5V4H1zm11.55 13H10.5c-.827 0-1.5-.673-1.5-1.5v-.793l1.147 1.147a.5.5 0 00.707-.707l-2.595-2.595a.56.56 0 010-.793.574.574 0 01.793 0l1.095 1.095a.5.5 0 00.707-.707l-1.25-1.25a.56.56 0 010-.793.574.574 0 01.793 0l.75.75a.5.5 0 00.706-.706l-.5-.5a.56.56 0 11.793-.793l.5.5a.5.5 0 00.707-.708.56.56 0 11.793-.793l1.55 1.55A4.416 4.416 0 0117 12.55 4.455 4.455 0 0112.55 17zM10.973 22.904a1.495 1.495 0 01-.601-.416.5.5 0 00-.752.66c.272.31.617.549 1.001.693a.497.497 0 00.644-.293.5.5 0 00-.292-.644zM13.735 23h-.984a.5.5 0 000 1h.984a.5.5 0 100-1zM22.28 22.781a1.48 1.48 0 01-.696.216.5.5 0 00.026 1l.027-.001a2.492 2.492 0 001.165-.362.5.5 0 00-.522-.853zM10 20.971v-.985a.5.5 0 00-1 0v.985a.5.5 0 001 0zM23.5 11.233a.5.5 0 00-.5.5v.984a.5.5 0 001 0v-.984a.5.5 0 00-.5-.5zM21.814 10.034c.24.051.466.162.654.322a.502.502 0 00.706-.056.501.501 0 00-.057-.705 2.501 2.501 0 00-1.094-.539.506.506 0 00-.594.385.5.5 0 00.385.593zM16.688 23h-.984a.5.5 0 000 1h.984a.5.5 0 100-1zM23.5 20.093a.5.5 0 00-.5.5l-.002.966.5.019L24 21.5v-.907a.5.5 0 00-.5-.5zM23.5 17.14a.5.5 0 00-.5.5v.985a.5.5 0 101-.001v-.984a.5.5 0 00-.5-.5zM19.643 23h-.984a.5.5 0 000 1h.984a.5.5 0 000-1zM23.5 14.187a.5.5 0 00-.5.5v.984a.5.5 0 001 0v-.984a.5.5 0 00-.5-.5zM19.953 9h-.984a.5.5 0 000 1h.984a.5.5 0 000-1z" fill="#2a84ff" class="color000 svgShape"></path><circle cx="2.5" cy="2.5" r=".5" fill="#2a84ff" class="color000 svgShape"></circle><circle cx="4.5" cy="2.5" r=".5" fill="#2a84ff" class="color000 svgShape"></circle><circle cx="6.5" cy="2.5" r=".5" fill="#2a84ff" class="color000 svgShape"></circle></svg></g></svg>