<svg id="SvgjsSvg1019" width="288" height="288" xmlns="http://www.w3.org/2000/svg" version="1.1" xmlns:xlink="http://www.w3.org/1999/xlink" xmlns:svgjs="http://svgjs.com/svgjs"><defs id="SvgjsDefs1020"></defs><g id="SvgjsG1021"><svg xmlns="http://www.w3.org/2000/svg" data-name="Layer 1" viewBox="0 0 512 512" width="288" height="288"><path fill="#2a84ff" d="M188.87378,343.6717a7.46676,7.46676,0,0,0-1.58789-3.43176l-40.97925-88.56885a7.49991,7.49991,0,0,0-13.61328,0L91.71411,340.23994a7.46676,7.46676,0,0,0-1.58789,3.43176L74.91406,376.55a7.49994,7.49994,0,0,0,13.61328,6.29883l14.03614-30.33643h73.873l14.03614,30.33643A7.49994,7.49994,0,0,0,204.08594,376.55Zm-79.37012-6.1593L139.5,272.68135l29.99634,64.83105ZM319.14648,89.57832h15.34864a7.5,7.5,0,0,0,0-15H288.79883a7.5,7.5,0,0,0,0,15h15.34765v33.8125H266.09106a31.883,31.883,0,0,0-27.04028-48.8125H206.752a7.5,7.5,0,0,0,0,15h32.29883a16.90625,16.90625,0,0,1,0,33.8125H206.752a7.5,7.5,0,0,0,0,15h31.75586c9.416,0,17.2666,7.40381,17.502,16.50488a16.9578,16.9578,0,0,1-16.95118,17.40821q-.35009,0-.69921.03271a54.98948,54.98948,0,0,1-44.7002-16.55566,7.5,7.5,0,1,0-10.78906,10.42089,69.95107,69.95107,0,0,0,50.43066,21.36963c2.04395,0,4.08789-.08935,6.12012-.26953a31.95571,31.95571,0,0,0,31.583-32.79346,31.14547,31.14547,0,0,0-5.0066-16.11767h38.14917v41.3125a7.5,7.5,0,0,0,15,0ZM402.4502,258.62715A109.307,109.307,0,0,0,341.25,277.30928v-12.377a143.7933,143.7933,0,0,0,64.71973-120.53515c0-79.73291-64.86231-144.6001-144.58985-144.6001S116.79,64.66426,116.79,144.39717a143.96547,143.96547,0,0,0,7.23877,45.29358C54.36255,197.4134,0,256.63728,0,328.32832a138.73953,138.73953,0,0,0,62.31641,116.21V504.0124a7.49986,7.49986,0,0,0,11.33984,6.44238l71.72754-42.752A139.52572,139.52572,0,0,0,276.38037,301.39228L304.855,318.35981a109.57419,109.57419,0,0,0,92.54346,159.262l55.08105,32.83691a7.5,7.5,0,0,0,11.34082-6.44189V458.93965a109.56059,109.56059,0,0,0-61.37011-200.3125ZM228.6748,415.20674a123.79649,123.79649,0,0,1-85.68164,37.57031,7.50219,7.50219,0,0,0-3.63378,1.05469l-62.043,36.97949V440.446a7.49815,7.49815,0,0,0-3.53516-6.36621,124.50806,124.50806,0,1,1,154.89355-18.873Zm41.85889-134.75928a139.7403,139.7403,0,0,0-130.91894-91.61768A128.875,128.875,0,0,1,131.79,144.39717c0-71.46192,58.13379-129.6001,129.58984-129.6001s129.58985,58.13818,129.58985,129.6001A128.93838,128.93838,0,0,1,329.78516,254.4709a7.50036,7.50036,0,0,0-3.53516,6.36621v52.80908l-7.42749-4.42566-.01392-.0094-.01757-.00952ZM452.35645,448.49971a7.50009,7.50009,0,0,0-3.53614,6.36718v35.94727l-45.38965-27.05908a7.50112,7.50112,0,0,0-3.63476-1.05518,94.56779,94.56779,0,0,1-82.01465-136.63745l12.12891,7.22729A7.50026,7.50026,0,0,0,341.25,326.84687V296.12349A94.54964,94.54964,0,1,1,452.35645,448.49971ZM448.834,327.196H433.24609a7.45115,7.45115,0,0,0-1.749,0H409.94629V314.59443a7.5,7.5,0,0,0-15,0V327.196H361.04785a7.5,7.5,0,0,0,0,15h59.86182A115.97013,115.97013,0,0,1,394.853,376.95515a92.96831,92.96831,0,0,1-12.94678-16.65955,7.50028,7.50028,0,0,0-12.81445,7.79786,108.01855,108.01855,0,0,0,13.92773,18.2229,113.671,113.671,0,0,1-22.33691,11.85913A7.5,7.5,0,1,0,366.208,412.1208a128.38506,128.38506,0,0,0,28.144-15.4624,107.51044,107.51044,0,0,0,37.51025,19.17383,7.50018,7.50018,0,0,0,4.10157-14.42872,92.64738,92.64738,0,0,1-29.71436-14.52758,132.24124,132.24124,0,0,0,31.1731-44.67994H448.834a7.5,7.5,0,0,0,0-15Z" class="color272a33 svgShape"></path></svg></g></svg>